<mxfile host="Electron" agent="Mozilla/5.0 (Macintosh; Intel Mac OS X 10_15_7) AppleWebKit/537.36 (KHTML, like Gecko) draw.io/26.0.4 Chrome/128.0.6613.186 Electron/32.2.5 Safari/537.36" version="26.0.4">
  <diagram name="Page-1" id="eCvax4wEMxg5GK6I1xBb">
    <mxGraphModel dx="641" dy="413" grid="0" gridSize="10" guides="1" tooltips="1" connect="1" arrows="1" fold="1" page="1" pageScale="1" pageWidth="1654" pageHeight="1169" math="1" shadow="0">
      <root>
        <mxCell id="0" />
        <mxCell id="1" parent="0" />
        <mxCell id="YrHaEqJFYHCmkw0jTjOD-25" value="" style="whiteSpace=wrap;html=1;aspect=fixed;rotation=-30;strokeWidth=2;fillColor=#E6E6E6;" parent="1" vertex="1">
          <mxGeometry x="521" y="186" width="200" height="200" as="geometry" />
        </mxCell>
        <mxCell id="YrHaEqJFYHCmkw0jTjOD-2" value="" style="ellipse;whiteSpace=wrap;html=1;aspect=fixed;strokeWidth=2;fillColor=#CCCCCC;" parent="1" vertex="1">
          <mxGeometry x="541" y="206" width="160" height="160" as="geometry" />
        </mxCell>
        <mxCell id="YrHaEqJFYHCmkw0jTjOD-3" value="" style="ellipse;whiteSpace=wrap;html=1;aspect=fixed;fillColor=#000000;" parent="1" vertex="1">
          <mxGeometry x="617" y="282.5" width="8" height="8" as="geometry" />
        </mxCell>
        <mxCell id="YrHaEqJFYHCmkw0jTjOD-4" value="" style="ellipse;whiteSpace=wrap;html=1;aspect=fixed;fillColor=#000000;" parent="1" vertex="1">
          <mxGeometry x="580" y="418" width="8" height="8" as="geometry" />
        </mxCell>
        <mxCell id="YrHaEqJFYHCmkw0jTjOD-5" value="" style="shape=crossbar;whiteSpace=wrap;html=1;rounded=1;rotation=-75;fillColor=#808080;strokeColor=#808080;strokeWidth=1;" parent="1" vertex="1">
          <mxGeometry x="550" y="349.1" width="141" height="20" as="geometry" />
        </mxCell>
        <mxCell id="YrHaEqJFYHCmkw0jTjOD-14" value="&lt;span style=&quot;font-family: SFMono-Regular, Menlo, Monaco, Consolas, &amp;quot;Liberation Mono&amp;quot;, &amp;quot;Courier New&amp;quot;, monospace; font-style: normal; font-variant-ligatures: normal; font-variant-caps: normal; letter-spacing: normal; orphans: 2; text-indent: 0px; text-transform: none; widows: 2; word-spacing: 0px; -webkit-text-stroke-width: 0px; white-space: normal; text-decoration-thickness: initial; text-decoration-style: initial; text-decoration-color: initial; float: none; display: inline !important;&quot;&gt;&lt;font style=&quot;color: rgb(128, 128, 128); font-size: 16px;&quot;&gt;`l`&lt;/font&gt;&lt;/span&gt;" style="text;html=1;align=left;verticalAlign=middle;resizable=0;points=[];autosize=1;strokeColor=none;fillColor=none;" parent="1" vertex="1">
          <mxGeometry x="626.22" y="339.1" width="47" height="31" as="geometry" />
        </mxCell>
        <mxCell id="YrHaEqJFYHCmkw0jTjOD-16" value="&lt;font face=&quot;SFMono-Regular, Menlo, Monaco, Consolas, Liberation Mono, Courier New, monospace&quot; color=&quot;#808080&quot;&gt;&lt;span style=&quot;font-size: 16px; text-wrap: wrap;&quot;&gt;`m`&lt;/span&gt;&lt;/font&gt;" style="text;html=1;align=left;verticalAlign=middle;resizable=0;points=[];autosize=1;strokeColor=none;fillColor=none;" parent="1" vertex="1">
          <mxGeometry x="594" y="268.5" width="47" height="31" as="geometry" />
        </mxCell>
        <mxCell id="YrHaEqJFYHCmkw0jTjOD-18" value="&lt;font face=&quot;SFMono-Regular, Menlo, Monaco, Consolas, Liberation Mono, Courier New, monospace&quot; color=&quot;#808080&quot;&gt;&lt;span style=&quot;font-size: 16px; text-wrap: wrap;&quot;&gt;`I_P`&lt;/span&gt;&lt;/font&gt;" style="text;html=1;align=left;verticalAlign=middle;resizable=0;points=[];autosize=1;strokeColor=none;fillColor=none;" parent="1" vertex="1">
          <mxGeometry x="749" y="283.5" width="66" height="31" as="geometry" />
        </mxCell>
        <mxCell id="YrHaEqJFYHCmkw0jTjOD-19" value="&lt;font face=&quot;SFMono-Regular, Menlo, Monaco, Consolas, Liberation Mono, Courier New, monospace&quot; color=&quot;#808080&quot;&gt;&lt;span style=&quot;font-size: 16px; text-wrap: wrap;&quot;&gt;`I_F`&lt;/span&gt;&lt;/font&gt;" style="text;html=1;align=left;verticalAlign=middle;resizable=0;points=[];autosize=1;strokeColor=none;fillColor=none;" parent="1" vertex="1">
          <mxGeometry x="701" y="268.5" width="66" height="31" as="geometry" />
        </mxCell>
        <mxCell id="YrHaEqJFYHCmkw0jTjOD-20" value="" style="endArrow=none;html=1;rounded=0;" parent="1" target="YrHaEqJFYHCmkw0jTjOD-3" edge="1">
          <mxGeometry width="50" height="50" relative="1" as="geometry">
            <mxPoint x="584" y="422" as="sourcePoint" />
            <mxPoint x="584" y="281" as="targetPoint" />
          </mxGeometry>
        </mxCell>
        <mxCell id="YrHaEqJFYHCmkw0jTjOD-21" value="" style="endArrow=none;html=1;rounded=0;dashed=1;strokeWidth=1;strokeColor=#808080;" parent="1" edge="1">
          <mxGeometry width="50" height="50" relative="1" as="geometry">
            <mxPoint x="584.69" y="419" as="sourcePoint" />
            <mxPoint x="585" y="150" as="targetPoint" />
          </mxGeometry>
        </mxCell>
        <mxCell id="YrHaEqJFYHCmkw0jTjOD-27" value="&lt;font face=&quot;SFMono-Regular, Menlo, Monaco, Consolas, Liberation Mono, Courier New, monospace&quot; color=&quot;#808080&quot;&gt;&lt;span style=&quot;font-size: 16px; text-wrap: wrap;&quot;&gt;`theta`&lt;/span&gt;&lt;/font&gt;" style="text;html=1;align=left;verticalAlign=middle;resizable=0;points=[];autosize=1;strokeColor=none;fillColor=none;" parent="1" vertex="1">
          <mxGeometry x="589" y="322" width="85" height="31" as="geometry" />
        </mxCell>
        <mxCell id="YrHaEqJFYHCmkw0jTjOD-28" value="" style="endArrow=none;html=1;rounded=0;dashed=1;strokeWidth=1;strokeColor=#808080;" parent="1" edge="1">
          <mxGeometry width="50" height="50" relative="1" as="geometry">
            <mxPoint x="620.72" y="285" as="sourcePoint" />
            <mxPoint x="621" y="151" as="targetPoint" />
          </mxGeometry>
        </mxCell>
        <mxCell id="YrHaEqJFYHCmkw0jTjOD-29" value="" style="endArrow=none;html=1;rounded=0;exitX=0.877;exitY=0.175;exitDx=0;exitDy=0;exitPerimeter=0;" parent="1" source="YrHaEqJFYHCmkw0jTjOD-2" edge="1">
          <mxGeometry width="50" height="50" relative="1" as="geometry">
            <mxPoint x="684.0799999999999" y="243.89999999999998" as="sourcePoint" />
            <mxPoint x="621" y="287" as="targetPoint" />
          </mxGeometry>
        </mxCell>
        <mxCell id="YrHaEqJFYHCmkw0jTjOD-30" value="&lt;font face=&quot;SFMono-Regular, Menlo, Monaco, Consolas, Liberation Mono, Courier New, monospace&quot; color=&quot;#808080&quot;&gt;&lt;span style=&quot;font-size: 16px; text-wrap: wrap;&quot;&gt;`phi`&lt;/span&gt;&lt;/font&gt;" style="text;html=1;align=left;verticalAlign=middle;resizable=0;points=[];autosize=1;strokeColor=none;fillColor=none;" parent="1" vertex="1">
          <mxGeometry x="625" y="242" width="66" height="31" as="geometry" />
        </mxCell>
      </root>
    </mxGraphModel>
  </diagram>
</mxfile>
